<svg width="40" height="40" viewBox="0 0 40 40" fill="none" xmlns="http://www.w3.org/2000/svg">
<circle cx="20" cy="20" r="20" fill="url(#paint0_linear_157_4616)"/>
<g filter="url(#filter0_ddi_157_4616)">
<path d="M25.54 16.8526C25.4744 16.8526 25.4186 16.8395 25.3727 16.8133C25.3268 16.7871 25.2907 16.7412 25.2645 16.6757L24.6938 15.3389L23.2571 14.7097C23.1915 14.6835 23.1456 14.6475 23.1194 14.6016C23.0931 14.5557 23.08 14.5 23.08 14.4345C23.08 14.369 23.0931 14.3133 23.1194 14.2674C23.1456 14.2215 23.1915 14.1855 23.2571 14.1593L24.6938 13.5498L25.2645 12.272C25.2907 12.2064 25.3268 12.1606 25.3727 12.1344C25.4186 12.1081 25.4744 12.095 25.54 12.095C25.6056 12.095 25.6614 12.1081 25.7073 12.1344C25.7532 12.1606 25.7893 12.2064 25.8155 12.272L26.3862 13.5498L27.8229 14.1593C27.8885 14.1855 27.9344 14.2215 27.9606 14.2674C27.9869 14.3133 28 14.369 28 14.4345C28 14.5 27.9869 14.5557 27.9606 14.6016C27.9344 14.6475 27.8885 14.6835 27.8229 14.7097L26.3862 15.3389L25.8155 16.6757C25.7893 16.7412 25.7532 16.7871 25.7073 16.8133C25.6614 16.8395 25.6056 16.8526 25.54 16.8526ZM25.54 28.5697C25.4875 28.5697 25.435 28.5566 25.3826 28.5304C25.3301 28.5042 25.2907 28.4583 25.2645 28.3928L24.6938 27.1149L23.2768 26.5055C23.2112 26.4793 23.1653 26.4432 23.139 26.3973C23.1128 26.3515 23.0997 26.2958 23.0997 26.2302C23.0997 26.1647 23.1128 26.109 23.139 26.0631C23.1653 26.0173 23.2112 25.9812 23.2768 25.955L24.6938 25.3456L25.2645 23.989C25.2907 23.9235 25.3268 23.8776 25.3727 23.8514C25.4186 23.8252 25.4744 23.8121 25.54 23.8121C25.6056 23.8121 25.6614 23.8252 25.7073 23.8514C25.7532 23.8776 25.7893 23.9235 25.8155 23.989L26.3862 25.3456L27.8032 25.955C27.8688 25.9812 27.9147 26.0173 27.9409 26.0631C27.9672 26.109 27.9803 26.1647 27.9803 26.2302C27.9803 26.2958 27.9672 26.3515 27.9409 26.3973C27.9147 26.4432 27.8688 26.4793 27.8032 26.5055L26.3862 27.1149L25.8155 28.3928C25.7893 28.4583 25.7499 28.5042 25.6974 28.5304C25.645 28.5566 25.5925 28.5697 25.54 28.5697ZM16.9005 25.1686C16.7955 25.1686 16.6939 25.1391 16.5955 25.0802C16.4971 25.0212 16.4216 24.9393 16.3691 24.8344L15.0899 22.1017L12.3347 20.8632C12.2298 20.8108 12.1478 20.7354 12.0887 20.6371C12.0297 20.5388 12.0002 20.4372 12.0002 20.3324C12.0002 20.2275 12.0297 20.1259 12.0887 20.0277C12.1478 19.9294 12.2298 19.854 12.3347 19.8016L15.0899 18.563L16.3691 15.85C16.4216 15.732 16.4971 15.6436 16.5955 15.5846C16.6939 15.5256 16.7955 15.4961 16.9005 15.4961C17.0055 15.4961 17.1071 15.5256 17.2055 15.5846C17.3039 15.6436 17.3794 15.7255 17.4319 15.8303L18.7307 18.563L21.4662 19.8016C21.5843 19.854 21.6729 19.9294 21.7319 20.0277C21.791 20.1259 21.8205 20.2275 21.8205 20.3324C21.8205 20.4372 21.791 20.5388 21.7319 20.6371C21.6729 20.7354 21.5843 20.8108 21.4662 20.8632L18.7307 22.1017L17.4319 24.8344C17.3794 24.9524 17.3039 25.0376 17.2055 25.09C17.1071 25.1424 17.0055 25.1686 16.9005 25.1686Z" fill="url(#paint1_linear_157_4616)" shape-rendering="crispEdges"/>
</g>
<defs>
<filter id="filter0_ddi_157_4616" x="5.63342" y="6.53326" width="28.0015" height="29.5741" filterUnits="userSpaceOnUse" color-interpolation-filters="sRGB">
<feFlood flood-opacity="0" result="BackgroundImageFix"/>
<feColorMatrix in="SourceAlpha" type="matrix" values="0 0 0 0 0 0 0 0 0 0 0 0 0 0 0 0 0 0 127 0" result="hardAlpha"/>
<feOffset dx="-1.31726" dy="2.48816"/>
<feGaussianBlur stdDeviation="2.52475"/>
<feComposite in2="hardAlpha" operator="out"/>
<feColorMatrix type="matrix" values="0 0 0 0 0.0506089 0 0 0 0 0.0159861 0 0 0 0 0.191833 0 0 0 0.25 0"/>
<feBlend mode="normal" in2="BackgroundImageFix" result="effect1_dropShadow_157_4616"/>
<feColorMatrix in="SourceAlpha" type="matrix" values="0 0 0 0 0 0 0 0 0 0 0 0 0 0 0 0 0 0 127 0" result="hardAlpha"/>
<feOffset dx="1.24408" dy="-1.1709"/>
<feGaussianBlur stdDeviation="2.19544"/>
<feComposite in2="hardAlpha" operator="out"/>
<feColorMatrix type="matrix" values="0 0 0 0 1 0 0 0 0 1 0 0 0 0 1 0 0 0 0.35 0"/>
<feBlend mode="normal" in2="effect1_dropShadow_157_4616" result="effect2_dropShadow_157_4616"/>
<feBlend mode="normal" in="SourceGraphic" in2="effect2_dropShadow_157_4616" result="shape"/>
<feColorMatrix in="SourceAlpha" type="matrix" values="0 0 0 0 0 0 0 0 0 0 0 0 0 0 0 0 0 0 127 0" result="hardAlpha"/>
<feOffset dy="3.07361"/>
<feGaussianBlur stdDeviation="1.9393"/>
<feComposite in2="hardAlpha" operator="arithmetic" k2="-1" k3="1"/>
<feColorMatrix type="matrix" values="0 0 0 0 1 0 0 0 0 1 0 0 0 0 1 0 0 0 1 0"/>
<feBlend mode="normal" in2="shape" result="effect3_innerShadow_157_4616"/>
</filter>
<linearGradient id="paint0_linear_157_4616" x1="23.8824" y1="33.1765" x2="32.3889" y2="2.42592" gradientUnits="userSpaceOnUse">
<stop stop-color="#4A25E1"/>
<stop offset="0.927091" stop-color="#7B5AFF"/>
</linearGradient>
<linearGradient id="paint1_linear_157_4616" x1="22.7969" y1="19.8497" x2="20.3183" y2="31.3723" gradientUnits="userSpaceOnUse">
<stop stop-color="white" stop-opacity="0.96"/>
<stop offset="1" stop-color="white" stop-opacity="0.23"/>
</linearGradient>
</defs>
</svg>
